<?xml version="1.0" encoding="UTF-8" standalone="no"?>
<svg
   xmlns:dc="http://purl.org/dc/elements/1.1/"
   xmlns:cc="http://creativecommons.org/ns#"
   xmlns:rdf="http://www.w3.org/1999/02/22-rdf-syntax-ns#"
   xmlns:svg="http://www.w3.org/2000/svg"
   xmlns="http://www.w3.org/2000/svg"
   width="219.46936"
   height="219.46936"
   viewBox="0 0 219.46936 219.46936"
   version="1.1"
   id="svg10">
  <metadata
     id="metadata16">
    <rdf:RDF>
      <cc:Work
         rdf:about="">
        <dc:format>image/svg+xml</dc:format>
        <dc:type
           rdf:resource="http://purl.org/dc/dcmitype/StillImage" />
        <dc:title>Artboard</dc:title>
      </cc:Work>
    </rdf:RDF>
  </metadata>
  <defs
     id="defs14" />
  <!-- Generator: Sketch 63.1 (92452) - https://sketch.com -->
  <title
     id="title2">Artboard</title>
  <desc
     id="desc4">Created with Sketch.</desc>
  <g
     id="Artboard"
     stroke="none"
     stroke-width="1"
     fill="none"
     fill-rule="evenodd"
     transform="scale(0.27851442)">
    <g
       id="bitcoin-cash-circle"
       fill-rule="nonzero">
      <circle
         id="Oval"
         fill="#54b57e"
         cx="394"
         cy="394"
         r="394" />
      <path
         d="m 516.9,261.7 c -19.8,-44.9 -65.3,-54.5 -121,-45.2 L 378,147.1 335.8,158 l 17.6,69.2 c -11.1,2.8 -22.5,5.2 -33.8,8.4 l -17.6,-68.8 -42.2,10.9 17.9,69.4 c -9.1,2.6 -85.2,22.1 -85.2,22.1 l 11.6,45.2 c 0,0 31,-8.7 30.7,-8 17.2,-4.5 25.3,4.1 29.1,12.2 l 49.2,190.2 c 0.6,5.5 -0.4,14.9 -12.2,18.1 0.7,0.4 -30.7,7.9 -30.7,7.9 l 4.6,52.7 c 0,0 75.4,-19.3 85.3,-21.8 l 18.1,70.2 42.2,-10.9 -18.1,-70.7 c 11.6,-2.7 22.9,-5.5 33.9,-8.4 l 18,70.3 42.2,-10.9 -18.1,-70.1 c 65,-15.8 110.9,-56.8 101.5,-119.5 -6,-37.8 -47.3,-68.8 -81.6,-72.3 21.1,-18.7 31.8,-46 18.7,-81.7 z m -20.3,165.5 c 8.4,62.1 -77.9,69.7 -106.4,77.2 l -24.8,-92.9 c 28.6,-7.5 117,-39 131.2,15.7 z m -52,-126.5 c 8.9,55.2 -64.9,61.6 -88.7,67.7 l -22.6,-84.3 c 23.9,-5.9 93.2,-34.5 111.3,16.6 z"
         id="symbol_1_"
         fill="#ffffff" />
    </g>
  </g>
</svg>
